<?xml version="1.0" encoding="UTF-8" standalone="no"?>
<!DOCTYPE svg PUBLIC "-//W3C//DTD SVG 1.1//EN"
 "http://www.w3.org/Graphics/SVG/1.1/DTD/svg11.dtd">
<!-- Generated by graphviz version 2.40.1 (20161225.0304)
 -->
<!-- Title: dependencies Pages: 1 -->
<svg width="504pt" height="284pt"
 viewBox="0.00 0.00 504.00 284.00" xmlns="http://www.w3.org/2000/svg" xmlns:xlink="http://www.w3.org/1999/xlink">
<g id="graph0" class="graph" transform="scale(1 1) rotate(0) translate(4 280)">
<title>dependencies</title>
<polygon fill="#ffffff" stroke="transparent" points="-4,4 -4,-280 500,-280 500,4 -4,4"/>
<text text-anchor="start" x="227.0091" y="-42.4" font-family="sans-serif" font-weight="bold" font-size="14.00" fill="#000000">Legend</text>
<polygon fill="#ffffb3" stroke="transparent" points="14,-10 14,-30 34,-30 34,-10 14,-10"/>
<text text-anchor="start" x="37.629" y="-15.4" font-family="sans-serif" font-size="14.00" fill="#000000"> &#160;Declarations</text>
<polygon fill="#8dd3c7" stroke="transparent" points="127,-10 127,-30 147,-30 147,-10 127,-10"/>
<text text-anchor="start" x="150.7251" y="-15.4" font-family="sans-serif" font-size="14.00" fill="#000000"> &#160;Module</text>
<polygon fill="#80b1d3" stroke="transparent" points="213,-10 213,-30 233,-30 233,-10 213,-10"/>
<text text-anchor="start" x="236.7812" y="-15.4" font-family="sans-serif" font-size="14.00" fill="#000000"> &#160;Bootstrap</text>
<polygon fill="#fdb462" stroke="transparent" points="310,-10 310,-30 330,-30 330,-10 310,-10"/>
<text text-anchor="start" x="333.6732" y="-15.4" font-family="sans-serif" font-size="14.00" fill="#000000"> &#160;Providers</text>
<polygon fill="#fb8072" stroke="transparent" points="406,-10 406,-30 426,-30 426,-10 406,-10"/>
<text text-anchor="start" x="429.7258" y="-15.4" font-family="sans-serif" font-size="14.00" fill="#000000"> &#160;Exports</text>
<g id="clust1" class="cluster">
<title>cluster_AuthenticationModule</title>
<polygon fill="none" stroke="#000000" stroke-dasharray="1,5" points="67.5,-70 67.5,-268 428.5,-268 428.5,-70 67.5,-70"/>
</g>
<g id="clust4" class="cluster">
<title>cluster_AuthenticationModule_exports</title>
<polygon fill="none" stroke="#000000" points="179.5,-208 179.5,-260 281.5,-260 281.5,-208 179.5,-208"/>
</g>
<g id="clust6" class="cluster">
<title>cluster_AuthenticationModule_providers</title>
<polygon fill="none" stroke="#000000" points="75.5,-78 75.5,-130 420.5,-130 420.5,-78 75.5,-78"/>
</g>
<!-- JwtStrategy  -->
<g id="node1" class="node">
<title>JwtStrategy </title>
<polygon fill="#fb8072" stroke="#000000" points="273.0964,-252 187.9036,-252 187.9036,-216 273.0964,-216 273.0964,-252"/>
<text text-anchor="middle" x="230.5" y="-229.8" font-family="Times,serif" font-size="14.00" fill="#000000">JwtStrategy </text>
</g>
<!-- AuthenticationModule -->
<g id="node2" class="node">
<title>AuthenticationModule</title>
<polygon fill="#8dd3c7" stroke="#000000" points="301.7534,-187 298.7534,-191 277.7534,-191 274.7534,-187 159.2466,-187 159.2466,-151 301.7534,-151 301.7534,-187"/>
<text text-anchor="middle" x="230.5" y="-164.8" font-family="Times,serif" font-size="14.00" fill="#000000">AuthenticationModule</text>
</g>
<!-- AuthenticationModule&#45;&gt;JwtStrategy  -->
<g id="edge1" class="edge">
<title>AuthenticationModule&#45;&gt;JwtStrategy </title>
<path fill="none" stroke="#000000" stroke-dasharray="5,2" d="M230.5,-187.1061C230.5,-187.1061 230.5,-205.991 230.5,-205.991"/>
<polygon fill="#000000" stroke="#000000" points="227.0001,-205.9909 230.5,-215.991 234.0001,-205.991 227.0001,-205.9909"/>
</g>
<!-- AuthenticationService -->
<g id="node3" class="node">
<title>AuthenticationService</title>
<ellipse fill="#fdb462" stroke="#000000" cx="315.5" cy="-104" rx="97.2683" ry="18"/>
<text text-anchor="middle" x="315.5" y="-99.8" font-family="Times,serif" font-size="14.00" fill="#000000">AuthenticationService</text>
</g>
<!-- AuthenticationService&#45;&gt;AuthenticationModule -->
<g id="edge2" class="edge">
<title>AuthenticationService&#45;&gt;AuthenticationModule</title>
<path fill="none" stroke="#000000" d="M259.9963,-119.0757C259.9963,-119.0757 259.9963,-140.7642 259.9963,-140.7642"/>
<polygon fill="#000000" stroke="#000000" points="256.4964,-140.7642 259.9963,-150.7642 263.4964,-140.7642 256.4964,-140.7642"/>
</g>
<!-- UserService -->
<g id="node4" class="node">
<title>UserService</title>
<ellipse fill="#fdb462" stroke="#000000" cx="141.5" cy="-104" rx="58.4415" ry="18"/>
<text text-anchor="middle" x="141.5" y="-99.8" font-family="Times,serif" font-size="14.00" fill="#000000">UserService</text>
</g>
<!-- UserService&#45;&gt;AuthenticationModule -->
<g id="edge3" class="edge">
<title>UserService&#45;&gt;AuthenticationModule</title>
<path fill="none" stroke="#000000" d="M179.4219,-117.7848C179.4219,-117.7848 179.4219,-140.5475 179.4219,-140.5475"/>
<polygon fill="#000000" stroke="#000000" points="175.922,-140.5474 179.4219,-150.5475 182.922,-140.5475 175.922,-140.5474"/>
</g>
</g>
</svg>
