<?xml version="1.0" encoding="UTF-8" standalone="no"?>
<!DOCTYPE svg PUBLIC "-//W3C//DTD SVG 1.1//EN"
 "http://www.w3.org/Graphics/SVG/1.1/DTD/svg11.dtd">
<!-- Generated by graphviz version 2.40.1 (20161225.0304)
 -->
<!-- Title: dependencies Pages: 1 -->
<svg width="1493pt" height="287pt"
 viewBox="0.00 0.00 1493.00 287.00" xmlns="http://www.w3.org/2000/svg" xmlns:xlink="http://www.w3.org/1999/xlink">
<g id="graph0" class="graph" transform="scale(1 1) rotate(0) translate(4 283)">
<title>dependencies</title>
<polygon fill="#ffffff" stroke="transparent" points="-4,4 -4,-283 1489,-283 1489,4 -4,4"/>
<text text-anchor="start" x="721.5091" y="-42.4" font-family="sans-serif" font-weight="bold" font-size="14.00" fill="#000000">Legend</text>
<polygon fill="#ffffb3" stroke="transparent" points="508.5,-10 508.5,-30 528.5,-30 528.5,-10 508.5,-10"/>
<text text-anchor="start" x="532.129" y="-15.4" font-family="sans-serif" font-size="14.00" fill="#000000"> &#160;Declarations</text>
<polygon fill="#8dd3c7" stroke="transparent" points="621.5,-10 621.5,-30 641.5,-30 641.5,-10 621.5,-10"/>
<text text-anchor="start" x="645.2251" y="-15.4" font-family="sans-serif" font-size="14.00" fill="#000000"> &#160;Module</text>
<polygon fill="#80b1d3" stroke="transparent" points="707.5,-10 707.5,-30 727.5,-30 727.5,-10 707.5,-10"/>
<text text-anchor="start" x="731.2812" y="-15.4" font-family="sans-serif" font-size="14.00" fill="#000000"> &#160;Bootstrap</text>
<polygon fill="#fdb462" stroke="transparent" points="804.5,-10 804.5,-30 824.5,-30 824.5,-10 804.5,-10"/>
<text text-anchor="start" x="828.1732" y="-15.4" font-family="sans-serif" font-size="14.00" fill="#000000"> &#160;Providers</text>
<polygon fill="#fb8072" stroke="transparent" points="900.5,-10 900.5,-30 920.5,-30 920.5,-10 900.5,-10"/>
<text text-anchor="start" x="924.2258" y="-15.4" font-family="sans-serif" font-size="14.00" fill="#000000"> &#160;Exports</text>
<g id="clust1" class="cluster">
<title>cluster_AppModule</title>
<polygon fill="none" stroke="#000000" stroke-dasharray="1,5" points="102,-146 102,-271 1194,-271 1194,-146 102,-146"/>
</g>
<g id="clust3" class="cluster">
<title>cluster_AppModule_imports</title>
<polygon fill="none" stroke="#000000" points="248,-154 248,-206 1186,-206 1186,-154 248,-154"/>
</g>
<g id="clust6" class="cluster">
<title>cluster_AppModule_providers</title>
<polygon fill="none" stroke="#000000" points="110,-154 110,-206 240,-206 240,-154 110,-154"/>
</g>
<g id="clust7" class="cluster">
<title>cluster_AuthenticationModule</title>
<polygon fill="none" stroke="#000000" stroke-dasharray="1,5" points="8,-70 8,-138 479,-138 479,-70 8,-70"/>
</g>
<g id="clust10" class="cluster">
<title>cluster_AuthenticationModule_exports</title>
<polygon fill="none" stroke="#000000" points="369,-78 369,-130 471,-130 471,-78 369,-78"/>
</g>
<g id="clust12" class="cluster">
<title>cluster_AuthenticationModule_providers</title>
<polygon fill="none" stroke="#000000" points="16,-78 16,-130 361,-130 361,-78 16,-78"/>
</g>
<g id="clust13" class="cluster">
<title>cluster_FormsModule</title>
<polygon fill="none" stroke="#000000" stroke-dasharray="1,5" points="487,-70 487,-138 649,-138 649,-70 487,-70"/>
</g>
<g id="clust18" class="cluster">
<title>cluster_FormsModule_providers</title>
<polygon fill="none" stroke="#000000" points="495,-78 495,-130 641,-130 641,-78 495,-78"/>
</g>
<g id="clust19" class="cluster">
<title>cluster_PatientModule</title>
<polygon fill="none" stroke="#000000" stroke-dasharray="1,5" points="657,-70 657,-138 823,-138 823,-70 657,-70"/>
</g>
<g id="clust24" class="cluster">
<title>cluster_PatientModule_providers</title>
<polygon fill="none" stroke="#000000" points="665,-78 665,-130 815,-130 815,-78 665,-78"/>
</g>
<g id="clust25" class="cluster">
<title>cluster_ScanTrackingModule</title>
<polygon fill="none" stroke="#000000" stroke-dasharray="1,5" points="831,-70 831,-138 1051,-138 1051,-70 831,-70"/>
</g>
<g id="clust30" class="cluster">
<title>cluster_ScanTrackingModule_providers</title>
<polygon fill="none" stroke="#000000" points="839,-78 839,-130 1043,-130 1043,-78 839,-78"/>
</g>
<g id="clust31" class="cluster">
<title>cluster_TaskManagerModule</title>
<polygon fill="none" stroke="#000000" stroke-dasharray="1,5" points="1059,-70 1059,-138 1277,-138 1277,-70 1059,-70"/>
</g>
<g id="clust36" class="cluster">
<title>cluster_TaskManagerModule_providers</title>
<polygon fill="none" stroke="#000000" points="1067,-78 1067,-130 1269,-130 1269,-78 1067,-78"/>
</g>
<g id="clust37" class="cluster">
<title>cluster_TreatmentModule</title>
<polygon fill="none" stroke="#000000" stroke-dasharray="1,5" points="1285,-70 1285,-138 1477,-138 1477,-70 1285,-70"/>
</g>
<g id="clust42" class="cluster">
<title>cluster_TreatmentModule_providers</title>
<polygon fill="none" stroke="#000000" points="1293,-78 1293,-130 1469,-130 1469,-78 1293,-78"/>
</g>
<!-- AuthenticationModule -->
<g id="node1" class="node">
<title>AuthenticationModule</title>
<polygon fill="#8dd3c7" stroke="#000000" points="502.2534,-198 499.2534,-202 478.2534,-202 475.2534,-198 359.7466,-198 359.7466,-162 502.2534,-162 502.2534,-198"/>
<text text-anchor="middle" x="431" y="-175.8" font-family="Times,serif" font-size="14.00" fill="#000000">AuthenticationModule</text>
</g>
<!-- AppModule -->
<g id="node8" class="node">
<title>AppModule</title>
<polygon fill="#8dd3c7" stroke="#000000" points="609.6571,-263 606.6571,-267 585.6571,-267 582.6571,-263 526.3429,-263 526.3429,-227 609.6571,-227 609.6571,-263"/>
<text text-anchor="middle" x="568" y="-240.8" font-family="Times,serif" font-size="14.00" fill="#000000">AppModule</text>
</g>
<!-- AuthenticationModule&#45;&gt;AppModule -->
<g id="edge1" class="edge">
<title>AuthenticationModule&#45;&gt;AppModule</title>
<path fill="none" stroke="#000000" d="M431,-198.027C431,-214.3976 431,-236 431,-236 431,-236 516.1511,-236 516.1511,-236"/>
<polygon fill="#000000" stroke="#000000" points="516.1511,-239.5001 526.1511,-236 516.151,-232.5001 516.1511,-239.5001"/>
</g>
<!-- JwtStrategy  -->
<g id="node10" class="node">
<title>JwtStrategy </title>
<polygon fill="#fb8072" stroke="#000000" points="462.5964,-122 377.4036,-122 377.4036,-86 462.5964,-86 462.5964,-122"/>
<text text-anchor="middle" x="420" y="-99.8" font-family="Times,serif" font-size="14.00" fill="#000000">JwtStrategy </text>
</g>
<!-- AuthenticationModule&#45;&gt;JwtStrategy  -->
<g id="edge10" class="edge">
<title>AuthenticationModule&#45;&gt;JwtStrategy </title>
<path fill="none" stroke="#000000" stroke-dasharray="5,2" d="M420,-161.9891C420,-161.9891 420,-132.145 420,-132.145"/>
<polygon fill="#000000" stroke="#000000" points="423.5001,-132.145 420,-122.145 416.5001,-132.1451 423.5001,-132.145"/>
</g>
<!-- FormsModule -->
<g id="node2" class="node">
<title>FormsModule</title>
<polygon fill="#8dd3c7" stroke="#000000" points="615.8288,-198 612.8288,-202 591.8288,-202 588.8288,-198 520.1712,-198 520.1712,-162 615.8288,-162 615.8288,-198"/>
<text text-anchor="middle" x="568" y="-175.8" font-family="Times,serif" font-size="14.00" fill="#000000">FormsModule</text>
</g>
<!-- FormsModule&#45;&gt;AppModule -->
<g id="edge2" class="edge">
<title>FormsModule&#45;&gt;AppModule</title>
<path fill="none" stroke="#000000" d="M554.0573,-198.1061C554.0573,-198.1061 554.0573,-216.991 554.0573,-216.991"/>
<polygon fill="#000000" stroke="#000000" points="550.5574,-216.9909 554.0573,-226.991 557.5574,-216.991 550.5574,-216.9909"/>
</g>
<!-- FormsModule&#45;&gt;AppModule -->
<g id="edge3" class="edge">
<title>FormsModule&#45;&gt;AppModule</title>
<path fill="none" stroke="#000000" d="M581.9427,-198.1061C581.9427,-198.1061 581.9427,-216.991 581.9427,-216.991"/>
<polygon fill="#000000" stroke="#000000" points="578.4428,-216.9909 581.9427,-226.991 585.4428,-216.991 578.4428,-216.9909"/>
</g>
<!-- PatientModule -->
<g id="node3" class="node">
<title>PatientModule</title>
<polygon fill="#8dd3c7" stroke="#000000" points="732.4344,-198 729.4344,-202 708.4344,-202 705.4344,-198 633.5656,-198 633.5656,-162 732.4344,-162 732.4344,-198"/>
<text text-anchor="middle" x="683" y="-175.8" font-family="Times,serif" font-size="14.00" fill="#000000">PatientModule</text>
</g>
<!-- PatientModule&#45;&gt;AppModule -->
<g id="edge4" class="edge">
<title>PatientModule&#45;&gt;AppModule</title>
<path fill="none" stroke="#000000" d="M683,-198.0091C683,-214.0494 683,-235 683,-235 683,-235 619.843,-235 619.843,-235"/>
<polygon fill="#000000" stroke="#000000" points="619.843,-231.5001 609.843,-235 619.8429,-238.5001 619.843,-231.5001"/>
</g>
<!-- ScanTrackingModule -->
<g id="node4" class="node">
<title>ScanTrackingModule</title>
<polygon fill="#8dd3c7" stroke="#000000" points="887.7949,-198 884.7949,-202 863.7949,-202 860.7949,-198 750.2051,-198 750.2051,-162 887.7949,-162 887.7949,-198"/>
<text text-anchor="middle" x="819" y="-175.8" font-family="Times,serif" font-size="14.00" fill="#000000">ScanTrackingModule</text>
</g>
<!-- ScanTrackingModule&#45;&gt;AppModule -->
<g id="edge5" class="edge">
<title>ScanTrackingModule&#45;&gt;AppModule</title>
<path fill="none" stroke="#000000" d="M819,-198.2667C819,-216.5552 819,-242 819,-242 819,-242 619.7293,-242 619.7293,-242"/>
<polygon fill="#000000" stroke="#000000" points="619.7293,-238.5001 609.7293,-242 619.7293,-245.5001 619.7293,-238.5001"/>
</g>
<!-- TaskManagerModule -->
<g id="node5" class="node">
<title>TaskManagerModule</title>
<polygon fill="#8dd3c7" stroke="#000000" points="1042.0115,-198 1039.0115,-202 1018.0115,-202 1015.0115,-198 905.9885,-198 905.9885,-162 1042.0115,-162 1042.0115,-198"/>
<text text-anchor="middle" x="974" y="-175.8" font-family="Times,serif" font-size="14.00" fill="#000000">TaskManagerModule</text>
</g>
<!-- TaskManagerModule&#45;&gt;AppModule -->
<g id="edge6" class="edge">
<title>TaskManagerModule&#45;&gt;AppModule</title>
<path fill="none" stroke="#000000" d="M974,-198.1289C974,-218.5724 974,-249 974,-249 974,-249 619.9199,-249 619.9199,-249"/>
<polygon fill="#000000" stroke="#000000" points="619.92,-245.5001 609.9199,-249 619.9199,-252.5001 619.92,-245.5001"/>
</g>
<!-- TreatmentModule -->
<g id="node6" class="node">
<title>TreatmentModule</title>
<polygon fill="#8dd3c7" stroke="#000000" points="1177.5786,-198 1174.5786,-202 1153.5786,-202 1150.5786,-198 1060.4214,-198 1060.4214,-162 1177.5786,-162 1177.5786,-198"/>
<text text-anchor="middle" x="1119" y="-175.8" font-family="Times,serif" font-size="14.00" fill="#000000">TreatmentModule</text>
</g>
<!-- TreatmentModule&#45;&gt;AppModule -->
<g id="edge7" class="edge">
<title>TreatmentModule&#45;&gt;AppModule</title>
<path fill="none" stroke="#000000" d="M1119,-198.0109C1119,-220.4852 1119,-256 1119,-256 1119,-256 619.8668,-256 619.8668,-256"/>
<polygon fill="#000000" stroke="#000000" points="619.8668,-252.5001 609.8668,-256 619.8668,-259.5001 619.8668,-252.5001"/>
</g>
<!-- UserModule -->
<g id="node7" class="node">
<title>UserModule</title>
<polygon fill="#8dd3c7" stroke="#000000" points="341.9762,-198 338.9762,-202 317.9762,-202 314.9762,-198 256.0238,-198 256.0238,-162 341.9762,-162 341.9762,-198"/>
<text text-anchor="middle" x="299" y="-175.8" font-family="Times,serif" font-size="14.00" fill="#000000">UserModule</text>
</g>
<!-- UserModule&#45;&gt;AppModule -->
<g id="edge8" class="edge">
<title>UserModule&#45;&gt;AppModule</title>
<path fill="none" stroke="#000000" d="M299,-198.1061C299,-217.3391 299,-245 299,-245 299,-245 516.2639,-245 516.2639,-245"/>
<polygon fill="#000000" stroke="#000000" points="516.2639,-248.5001 526.2639,-245 516.2639,-241.5001 516.2639,-248.5001"/>
</g>
<!-- AppService -->
<g id="node9" class="node">
<title>AppService</title>
<ellipse fill="#fdb462" stroke="#000000" cx="175" cy="-180" rx="56.7406" ry="18"/>
<text text-anchor="middle" x="175" y="-175.8" font-family="Times,serif" font-size="14.00" fill="#000000">AppService</text>
</g>
<!-- AppService&#45;&gt;AppModule -->
<g id="edge9" class="edge">
<title>AppService&#45;&gt;AppModule</title>
<path fill="none" stroke="#000000" d="M175,-198.2921C175,-220.2057 175,-254 175,-254 175,-254 516.3142,-254 516.3142,-254"/>
<polygon fill="#000000" stroke="#000000" points="516.3142,-257.5001 526.3142,-254 516.3141,-250.5001 516.3142,-257.5001"/>
</g>
<!-- AuthenticationService -->
<g id="node11" class="node">
<title>AuthenticationService</title>
<ellipse fill="#fdb462" stroke="#000000" cx="256" cy="-104" rx="97.2683" ry="18"/>
<text text-anchor="middle" x="256" y="-99.8" font-family="Times,serif" font-size="14.00" fill="#000000">AuthenticationService</text>
</g>
<!-- AuthenticationService&#45;&gt;AuthenticationModule -->
<g id="edge11" class="edge">
<title>AuthenticationService&#45;&gt;AuthenticationModule</title>
<path fill="none" stroke="#000000" d="M347.6861,-110.2194C347.6861,-128.3704 347.6861,-180 347.6861,-180 347.6861,-180 349.6229,-180 349.6229,-180"/>
<polygon fill="#000000" stroke="#000000" points="349.623,-183.5001 359.6229,-180 349.6229,-176.5001 349.623,-183.5001"/>
</g>
<!-- UserService -->
<g id="node12" class="node">
<title>UserService</title>
<ellipse fill="#fdb462" stroke="#000000" cx="82" cy="-104" rx="58.4415" ry="18"/>
<text text-anchor="middle" x="82" y="-99.8" font-family="Times,serif" font-size="14.00" fill="#000000">UserService</text>
</g>
<!-- UserService&#45;&gt;AuthenticationModule -->
<g id="edge12" class="edge">
<title>UserService&#45;&gt;AuthenticationModule</title>
<path fill="none" stroke="#000000" d="M132.9402,-112.7441C132.9402,-122.2188 132.9402,-136 132.9402,-136 132.9402,-136 368.4129,-136 368.4129,-136 368.4129,-136 368.4129,-151.8495 368.4129,-151.8495"/>
<polygon fill="#000000" stroke="#000000" points="364.9129,-151.8494 368.4129,-161.8495 371.9129,-151.8495 364.9129,-151.8494"/>
</g>
<!-- UserService&#45;&gt;UserModule -->
<g id="edge18" class="edge">
<title>UserService&#45;&gt;UserModule</title>
<path fill="none" stroke="#000000" d="M125.66,-116.2964C125.66,-129.6201 125.66,-149 125.66,-149 125.66,-149 299,-149 299,-149 299,-149 299,-151.9672 299,-151.9672"/>
<polygon fill="#000000" stroke="#000000" points="295.5001,-151.9671 299,-161.9672 302.5001,-151.9672 295.5001,-151.9671"/>
</g>
<!-- FormsService -->
<g id="node13" class="node">
<title>FormsService</title>
<ellipse fill="#fdb462" stroke="#000000" cx="568" cy="-104" rx="64.8428" ry="18"/>
<text text-anchor="middle" x="568" y="-99.8" font-family="Times,serif" font-size="14.00" fill="#000000">FormsService</text>
</g>
<!-- FormsService&#45;&gt;FormsModule -->
<g id="edge13" class="edge">
<title>FormsService&#45;&gt;FormsModule</title>
<path fill="none" stroke="#000000" d="M568,-122.0109C568,-122.0109 568,-151.855 568,-151.855"/>
<polygon fill="#000000" stroke="#000000" points="564.5001,-151.8549 568,-161.855 571.5001,-151.855 564.5001,-151.8549"/>
</g>
<!-- PatientService -->
<g id="node14" class="node">
<title>PatientService</title>
<ellipse fill="#fdb462" stroke="#000000" cx="740" cy="-104" rx="66.6267" ry="18"/>
<text text-anchor="middle" x="740" y="-99.8" font-family="Times,serif" font-size="14.00" fill="#000000">PatientService</text>
</g>
<!-- PatientService&#45;&gt;PatientModule -->
<g id="edge14" class="edge">
<title>PatientService&#45;&gt;PatientModule</title>
<path fill="none" stroke="#000000" d="M702.7018,-119.0152C702.7018,-119.0152 702.7018,-151.7991 702.7018,-151.7991"/>
<polygon fill="#000000" stroke="#000000" points="699.2019,-151.7991 702.7018,-161.7991 706.2019,-151.7992 699.2019,-151.7991"/>
</g>
<!-- ScanTrackingService -->
<g id="node15" class="node">
<title>ScanTrackingService</title>
<ellipse fill="#fdb462" stroke="#000000" cx="941" cy="-104" rx="93.7378" ry="18"/>
<text text-anchor="middle" x="941" y="-99.8" font-family="Times,serif" font-size="14.00" fill="#000000">ScanTrackingService</text>
</g>
<!-- ScanTrackingService&#45;&gt;ScanTrackingModule -->
<g id="edge15" class="edge">
<title>ScanTrackingService&#45;&gt;ScanTrackingModule</title>
<path fill="none" stroke="#000000" d="M867.5142,-115.2141C867.5142,-115.2141 867.5142,-151.9559 867.5142,-151.9559"/>
<polygon fill="#000000" stroke="#000000" points="864.0143,-151.9559 867.5142,-161.9559 871.0143,-151.956 864.0143,-151.9559"/>
</g>
<!-- TaskManagerService -->
<g id="node16" class="node">
<title>TaskManagerService</title>
<ellipse fill="#fdb462" stroke="#000000" cx="1168" cy="-104" rx="93.1562" ry="18"/>
<text text-anchor="middle" x="1168" y="-99.8" font-family="Times,serif" font-size="14.00" fill="#000000">TaskManagerService</text>
</g>
<!-- TaskManagerService&#45;&gt;TaskManagerModule -->
<g id="edge16" class="edge">
<title>TaskManagerService&#45;&gt;TaskManagerModule</title>
<path fill="none" stroke="#000000" d="M1074.8724,-104C1054.2731,-104 1038.4371,-104 1038.4371,-104 1038.4371,-104 1038.4371,-151.9891 1038.4371,-151.9891"/>
<polygon fill="#000000" stroke="#000000" points="1034.9372,-151.989 1038.4371,-161.9891 1041.9372,-151.9891 1034.9372,-151.989"/>
</g>
<!-- TreatmentService -->
<g id="node17" class="node">
<title>TreatmentService</title>
<ellipse fill="#fdb462" stroke="#000000" cx="1381" cy="-104" rx="79.8488" ry="18"/>
<text text-anchor="middle" x="1381" y="-99.8" font-family="Times,serif" font-size="14.00" fill="#000000">TreatmentService</text>
</g>
<!-- TreatmentService&#45;&gt;TreatmentModule -->
<g id="edge17" class="edge">
<title>TreatmentService&#45;&gt;TreatmentModule</title>
<path fill="none" stroke="#000000" d="M1381,-122.0109C1381,-144.4852 1381,-180 1381,-180 1381,-180 1187.7979,-180 1187.7979,-180"/>
<polygon fill="#000000" stroke="#000000" points="1187.7979,-176.5001 1177.7979,-180 1187.7979,-183.5001 1187.7979,-176.5001"/>
</g>
</g>
</svg>
