<?xml version="1.0" encoding="UTF-8" standalone="no"?>
<!DOCTYPE svg PUBLIC "-//W3C//DTD SVG 1.1//EN"
 "http://www.w3.org/Graphics/SVG/1.1/DTD/svg11.dtd">
<!-- Generated by graphviz version 2.40.1 (20161225.0304)
 -->
<!-- Title: dependencies Pages: 1 -->
<svg width="1116pt" height="211pt"
 viewBox="0.00 0.00 1116.00 211.00" xmlns="http://www.w3.org/2000/svg" xmlns:xlink="http://www.w3.org/1999/xlink">
<g id="graph0" class="graph" transform="scale(1 1) rotate(0) translate(4 207)">
<title>dependencies</title>
<polygon fill="#ffffff" stroke="transparent" points="-4,4 -4,-207 1112,-207 1112,4 -4,4"/>
<text text-anchor="start" x="533.0091" y="-42.4" font-family="sans-serif" font-weight="bold" font-size="14.00" fill="#000000">Legend</text>
<polygon fill="#ffffb3" stroke="transparent" points="320,-10 320,-30 340,-30 340,-10 320,-10"/>
<text text-anchor="start" x="343.629" y="-15.4" font-family="sans-serif" font-size="14.00" fill="#000000"> &#160;Declarations</text>
<polygon fill="#8dd3c7" stroke="transparent" points="433,-10 433,-30 453,-30 453,-10 433,-10"/>
<text text-anchor="start" x="456.7251" y="-15.4" font-family="sans-serif" font-size="14.00" fill="#000000"> &#160;Module</text>
<polygon fill="#80b1d3" stroke="transparent" points="519,-10 519,-30 539,-30 539,-10 519,-10"/>
<text text-anchor="start" x="542.7812" y="-15.4" font-family="sans-serif" font-size="14.00" fill="#000000"> &#160;Bootstrap</text>
<polygon fill="#fdb462" stroke="transparent" points="616,-10 616,-30 636,-30 636,-10 616,-10"/>
<text text-anchor="start" x="639.6732" y="-15.4" font-family="sans-serif" font-size="14.00" fill="#000000"> &#160;Providers</text>
<polygon fill="#fb8072" stroke="transparent" points="712,-10 712,-30 732,-30 732,-10 712,-10"/>
<text text-anchor="start" x="735.7258" y="-15.4" font-family="sans-serif" font-size="14.00" fill="#000000"> &#160;Exports</text>
<g id="clust1" class="cluster">
<title>cluster_AppModule</title>
<polygon fill="none" stroke="#000000" stroke-dasharray="1,5" points="8,-70 8,-195 1100,-195 1100,-70 8,-70"/>
</g>
<g id="clust3" class="cluster">
<title>cluster_AppModule_imports</title>
<polygon fill="none" stroke="#000000" points="154,-78 154,-130 1092,-130 1092,-78 154,-78"/>
</g>
<g id="clust6" class="cluster">
<title>cluster_AppModule_providers</title>
<polygon fill="none" stroke="#000000" points="16,-78 16,-130 146,-130 146,-78 16,-78"/>
</g>
<!-- AuthenticationModule -->
<g id="node1" class="node">
<title>AuthenticationModule</title>
<polygon fill="#8dd3c7" stroke="#000000" points="1084.2534,-122 1081.2534,-126 1060.2534,-126 1057.2534,-122 941.7466,-122 941.7466,-86 1084.2534,-86 1084.2534,-122"/>
<text text-anchor="middle" x="1013" y="-99.8" font-family="Times,serif" font-size="14.00" fill="#000000">AuthenticationModule</text>
</g>
<!-- AppModule -->
<g id="node8" class="node">
<title>AppModule</title>
<polygon fill="#8dd3c7" stroke="#000000" points="666.6571,-187 663.6571,-191 642.6571,-191 639.6571,-187 583.3429,-187 583.3429,-151 666.6571,-151 666.6571,-187"/>
<text text-anchor="middle" x="625" y="-164.8" font-family="Times,serif" font-size="14.00" fill="#000000">AppModule</text>
</g>
<!-- AuthenticationModule&#45;&gt;AppModule -->
<g id="edge1" class="edge">
<title>AuthenticationModule&#45;&gt;AppModule</title>
<path fill="none" stroke="#000000" d="M1013,-122.0109C1013,-144.4852 1013,-180 1013,-180 1013,-180 676.8914,-180 676.8914,-180"/>
<polygon fill="#000000" stroke="#000000" points="676.8915,-176.5001 666.8914,-180 676.8914,-183.5001 676.8915,-176.5001"/>
</g>
<!-- FormsModule -->
<g id="node2" class="node">
<title>FormsModule</title>
<polygon fill="#8dd3c7" stroke="#000000" points="923.8288,-122 920.8288,-126 899.8288,-126 896.8288,-122 828.1712,-122 828.1712,-86 923.8288,-86 923.8288,-122"/>
<text text-anchor="middle" x="876" y="-99.8" font-family="Times,serif" font-size="14.00" fill="#000000">FormsModule</text>
</g>
<!-- FormsModule&#45;&gt;AppModule -->
<g id="edge2" class="edge">
<title>FormsModule&#45;&gt;AppModule</title>
<path fill="none" stroke="#000000" d="M860.112,-122.2667C860.112,-140.5552 860.112,-166 860.112,-166 860.112,-166 676.7624,-166 676.7624,-166"/>
<polygon fill="#000000" stroke="#000000" points="676.7624,-162.5001 666.7624,-166 676.7624,-169.5001 676.7624,-162.5001"/>
</g>
<!-- FormsModule&#45;&gt;AppModule -->
<g id="edge3" class="edge">
<title>FormsModule&#45;&gt;AppModule</title>
<path fill="none" stroke="#000000" d="M891.888,-122.1289C891.888,-142.5724 891.888,-173 891.888,-173 891.888,-173 676.7013,-173 676.7013,-173"/>
<polygon fill="#000000" stroke="#000000" points="676.7013,-169.5001 666.7013,-173 676.7012,-176.5001 676.7013,-169.5001"/>
</g>
<!-- PatientModule -->
<g id="node3" class="node">
<title>PatientModule</title>
<polygon fill="#8dd3c7" stroke="#000000" points="810.4344,-122 807.4344,-126 786.4344,-126 783.4344,-122 711.5656,-122 711.5656,-86 810.4344,-86 810.4344,-122"/>
<text text-anchor="middle" x="761" y="-99.8" font-family="Times,serif" font-size="14.00" fill="#000000">PatientModule</text>
</g>
<!-- PatientModule&#45;&gt;AppModule -->
<g id="edge4" class="edge">
<title>PatientModule&#45;&gt;AppModule</title>
<path fill="none" stroke="#000000" d="M761,-122.0091C761,-138.0494 761,-159 761,-159 761,-159 676.9142,-159 676.9142,-159"/>
<polygon fill="#000000" stroke="#000000" points="676.9142,-155.5001 666.9142,-159 676.9142,-162.5001 676.9142,-155.5001"/>
</g>
<!-- ScanTrackingModule -->
<g id="node4" class="node">
<title>ScanTrackingModule</title>
<polygon fill="#8dd3c7" stroke="#000000" points="693.7949,-122 690.7949,-126 669.7949,-126 666.7949,-122 556.2051,-122 556.2051,-86 693.7949,-86 693.7949,-122"/>
<text text-anchor="middle" x="625" y="-99.8" font-family="Times,serif" font-size="14.00" fill="#000000">ScanTrackingModule</text>
</g>
<!-- ScanTrackingModule&#45;&gt;AppModule -->
<g id="edge5" class="edge">
<title>ScanTrackingModule&#45;&gt;AppModule</title>
<path fill="none" stroke="#000000" d="M625,-122.1061C625,-122.1061 625,-140.991 625,-140.991"/>
<polygon fill="#000000" stroke="#000000" points="621.5001,-140.9909 625,-150.991 628.5001,-140.991 621.5001,-140.9909"/>
</g>
<!-- TaskManagerModule -->
<g id="node5" class="node">
<title>TaskManagerModule</title>
<polygon fill="#8dd3c7" stroke="#000000" points="538.0115,-122 535.0115,-126 514.0115,-126 511.0115,-122 401.9885,-122 401.9885,-86 538.0115,-86 538.0115,-122"/>
<text text-anchor="middle" x="470" y="-99.8" font-family="Times,serif" font-size="14.00" fill="#000000">TaskManagerModule</text>
</g>
<!-- TaskManagerModule&#45;&gt;AppModule -->
<g id="edge6" class="edge">
<title>TaskManagerModule&#45;&gt;AppModule</title>
<path fill="none" stroke="#000000" d="M470,-122.0091C470,-138.0494 470,-159 470,-159 470,-159 573.0548,-159 573.0548,-159"/>
<polygon fill="#000000" stroke="#000000" points="573.0548,-162.5001 583.0548,-159 573.0547,-155.5001 573.0548,-162.5001"/>
</g>
<!-- TreatmentModule -->
<g id="node6" class="node">
<title>TreatmentModule</title>
<polygon fill="#8dd3c7" stroke="#000000" points="383.5786,-122 380.5786,-126 359.5786,-126 356.5786,-122 266.4214,-122 266.4214,-86 383.5786,-86 383.5786,-122"/>
<text text-anchor="middle" x="325" y="-99.8" font-family="Times,serif" font-size="14.00" fill="#000000">TreatmentModule</text>
</g>
<!-- TreatmentModule&#45;&gt;AppModule -->
<g id="edge7" class="edge">
<title>TreatmentModule&#45;&gt;AppModule</title>
<path fill="none" stroke="#000000" d="M325,-122.2667C325,-140.5552 325,-166 325,-166 325,-166 573.2863,-166 573.2863,-166"/>
<polygon fill="#000000" stroke="#000000" points="573.2863,-169.5001 583.2863,-166 573.2863,-162.5001 573.2863,-169.5001"/>
</g>
<!-- UserModule -->
<g id="node7" class="node">
<title>UserModule</title>
<polygon fill="#8dd3c7" stroke="#000000" points="247.9762,-122 244.9762,-126 223.9762,-126 220.9762,-122 162.0238,-122 162.0238,-86 247.9762,-86 247.9762,-122"/>
<text text-anchor="middle" x="205" y="-99.8" font-family="Times,serif" font-size="14.00" fill="#000000">UserModule</text>
</g>
<!-- UserModule&#45;&gt;AppModule -->
<g id="edge8" class="edge">
<title>UserModule&#45;&gt;AppModule</title>
<path fill="none" stroke="#000000" d="M205,-122.1289C205,-142.5724 205,-173 205,-173 205,-173 573.1933,-173 573.1933,-173"/>
<polygon fill="#000000" stroke="#000000" points="573.1933,-176.5001 583.1933,-173 573.1933,-169.5001 573.1933,-176.5001"/>
</g>
<!-- AppService -->
<g id="node9" class="node">
<title>AppService</title>
<ellipse fill="#fdb462" stroke="#000000" cx="81" cy="-104" rx="56.7406" ry="18"/>
<text text-anchor="middle" x="81" y="-99.8" font-family="Times,serif" font-size="14.00" fill="#000000">AppService</text>
</g>
<!-- AppService&#45;&gt;AppModule -->
<g id="edge9" class="edge">
<title>AppService&#45;&gt;AppModule</title>
<path fill="none" stroke="#000000" d="M81,-122.0109C81,-144.4852 81,-180 81,-180 81,-180 573.2165,-180 573.2165,-180"/>
<polygon fill="#000000" stroke="#000000" points="573.2166,-183.5001 583.2165,-180 573.2165,-176.5001 573.2166,-183.5001"/>
</g>
</g>
</svg>
